<?xml version="1.0" encoding="utf-8"?>
<svg viewBox="0 0 500 500" width="500" height="500" xmlns="http://www.w3.org/2000/svg">
  <ellipse style="fill: none; stroke-width: 20px; stroke: rgb(8, 78, 183);" cx="248.539" cy="244.802" rx="193.525" ry="193.34"/>
  <g style="" transform="matrix(5.935899, 0, 0, 6.511997, -882.651455, -924.527005)">
    <path style="paint-order: stroke; stroke: rgb(80, 43, 212); fill: rgb(81, 43, 212); stroke-width: 0px;" d="M 159.509 187.941 C 170.623 171.213 163.723 156.302 162.898 155.954 L 173.203 152.052 C 176.077 161.896 182.801 165.298 182.801 165.298 C 187.729 168.612 192.502 169.531 199.197 165.503 C 202.275 163.829 205.825 163.045 209.267 154.534 L 217.257 156.419 C 212.299 173.096 209.473 165.886 216.778 187.776 L 205.95 185.735 C 204.097 166.337 210.654 165.602 211.364 162.041 L 198.716 174.265 C 195.626 171.306 189.463 170.244 182.111 173.323 L 169.977 159.786 C 171.338 159.841 175.614 178.544 172.003 186.563 L 159.509 187.941 Z" transform="matrix(0.999198, -0.040052, 0.040052, 0.999198, -6.657539, 7.68152)"/>
    <path style="stroke: rgb(0, 0, 0); stroke-width: 0px; fill: rgb(81, 43, 212);" d="M 189.615 188.241 L 186.284 193.339 C 186.284 193.339 192.947 193.572 192.827 193.572 C 192.708 193.572 189.615 188.241 189.615 188.241 Z" transform="matrix(-0.998613, 0.052657, -0.052657, -0.998613, 388.902176, 371.566688)"/>
    <text style="white-space: pre; fill: rgb(51, 51, 51); font-family: Arial, sans-serif; font-size: 5.8px;" x="236.448" y="227.161" transform="matrix(3.67364, 0, 0, 1.773169, -676.374023, -218.995285)">#</text>
    <path style="fill: rgb(40, 167, 69); stroke: rgb(80, 43, 212);" d="M 200.675 186.832 C 206.921 186.832 213.704 191.942 219.321 191.942"/>
    <path style="fill: rgb(216, 216, 216); stroke: rgb(80, 43, 212);" d="M 199.847 191.665 C 202.587 193.035 206.089 194.538 208.824 196.361 C 211.254 197.981 214.106 200.505 216.973 200.505"/>
    <path style="fill-opacity: 0; fill: none; stroke: rgb(80, 43, 212);" d="M 178.853 188.489 C 173.625 188.489 171.908 191.386 168.219 191.804 C 165.237 192.142 159.241 190.83 159.241 191.113"/>
    <path style="fill: rgb(216, 216, 216); stroke: rgb(80, 43, 212);" d="M 181.063 195.531 C 173.602 196.536 166.944 198.169 162.003 198.156" transform="matrix(0.955028, -0.296516, 0.296516, 0.955028, -50.653057, 59.714749)"/>
    <text style="white-space: pre; fill: rgb(51, 51, 51); font-family: Arial, sans-serif; font-size: 5.8px;" x="236.448" y="227.161" transform="matrix(3.67364, 0, 0, 1.773169, -691.968323, -218.854401)">#</text>
  </g>
</svg>